<?xml version="1.0" encoding="utf-8"?>
<!-- Generator: Adobe Illustrator 20.0.0, SVG Export Plug-In . SVG Version: 6.00 Build 0)  -->
<svg version="1.1" id="Layer_1" xmlns="http://www.w3.org/2000/svg" xmlns:xlink="http://www.w3.org/1999/xlink" x="0px" y="0px"
	 viewBox="0 0 92.5 162.8" style="enable-background:new 0 0 92.5 162.8;" xml:space="preserve">
<style type="text/css">
	.st0{fill:#FFFFFF;}
	.st1{fill:#966026;}
	.st2{fill:#DD952E;}
</style>
<g>
	<path class="st0" d="M59.5,162.8c-0.5,0-1.1,0-1.8,0c-1,0-2.4-0.1-3.9-0.1c-9.9-0.6-19.8-1.6-30.1-3.1c-1.2-0.2-2.4-0.4-3.9-0.6
		c-4-0.7-4.9-1.1-5.5-1.4c-0.2-0.1-0.5-0.3-0.8-0.4c-1.4-0.7-3.2-1.7-4.7-3.3c-2-2.2-2.6-5-1.7-7.9c1.6-5.2,9.2-16.1,10-17.4
		c0.2-0.3,0.3-0.4,0.6-0.6c0.3-0.3,1.2-1.3,0.6-3.3c0,0,0,0,0,0l0,0c0-0.1-0.1-0.2-0.1-0.3c-0.3-0.8-0.8-1.7-1.5-2.5
		c-0.8-1.1-1.9-2.3-3-3.6c-3.7-4.2-8.7-10-11.5-18c-0.4-1.3-0.8-2.6-1.2-3.9c-0.9-3.9-1.3-7.9-1-12.1c0.5-8.3,4-17,8.1-27.2
		c5.6-14.1,12.7-31.5,13.6-53.8c0-0.8,0.4-1.6,1-2.2c0.6-0.5,1.5-0.8,2.3-0.7l59.4,6.1c0.8,0.1,1.6,0.5,2.1,1.2
		c0.5,0.7,0.7,1.5,0.6,2.3c-3.5,22-0.2,40.6,2.5,55.5c1.9,10.8,3.6,20.1,2.4,28.2c0,0,0,0.1,0,0.1c0,0.2,0,0.3-0.1,0.5
		c0,0.2-0.1,0.5-0.1,0.7c-0.7,4.3-2.1,8.3-4,12c-0.4,0.7-0.7,1.4-1.1,2c-4.4,7.3-10.5,12-15,15.4c-1.3,1-2.6,2-3.6,2.8
		c-0.9,0.8-1.5,1.5-2,2.2c0,0.1-0.1,0.1-0.1,0.2c0,0.1-0.1,0.2-0.1,0.2c-1.1,2-0.1,3.2-0.1,3.2c0.2,0.2,0.4,0.5,0.5,0.8
		c0.6,1.4,5.8,13.6,6.3,19c0.3,3.1-0.8,5.6-3.2,7.4c-1.7,1.3-3.8,1.9-5.2,2.3c-0.3,0.1-0.6,0.2-0.8,0.2
		C62.8,162.6,62,162.8,59.5,162.8z M17.3,152.1c0.2,0.1,1,0.3,3.6,0.8c1.4,0.2,2.6,0.4,3.7,0.6c10.2,1.5,19.8,2.5,29.6,3
		c1.4,0.1,2.7,0.1,3.7,0.1c2.7,0.1,3.5,0,3.7-0.1c0.3-0.1,0.6-0.2,0.9-0.3c3.7-1.1,4.3-1.8,4.1-3.3c-0.4-3.7-4.1-13.1-5.7-16.9
		c-1.3-1.8-2.5-5.3-0.4-9.4c0.1-0.2,0.2-0.4,0.2-0.5c0.1-0.2,0.2-0.4,0.4-0.6c0,0,0,0,0,0c0.7-1.1,1.7-2.2,3-3.4c0,0,0,0,0,0
		c1.1-1,2.5-2,3.9-3.1c4.3-3.3,9.7-7.4,13.5-13.7c0,0,0,0,0-0.1c0.3-0.5,0.6-1,0.9-1.6c1.7-3.1,2.8-6.5,3.4-10.2
		c0-0.2,0.1-0.3,0.1-0.5c0-0.2,0.1-0.4,0.1-0.6c1-7.2-0.6-16-2.4-26.2c-2.6-14.6-5.9-32.7-3-54.4L27.7,6.4
		C26.2,28.2,19.3,45.2,13.8,59c-3.9,9.7-7.2,18-7.7,25.3c-0.2,3.6,0.1,7,0.9,10.3c0.3,1.1,0.6,2.2,1,3.3c2.5,6.9,6.9,12,10.4,16.1
		c1.2,1.4,2.3,2.7,3.3,3.9c1,1.4,1.8,2.7,2.4,4.1c0,0.1,0,0.1,0.1,0.2l0,0c0,0.1,0.1,0.3,0.1,0.4c1.6,5.1-1,8.4-2.2,9.5
		c-2.3,3.3-7.9,11.8-9,15.4c-0.5,1.5,0,2.3,3.4,4.1C16.7,151.8,17,152,17.3,152.1z M66.3,128.4C66.3,128.4,66.3,128.4,66.3,128.4
		L66.3,128.4z M66.3,128.3C66.3,128.3,66.3,128.3,66.3,128.3C66.3,128.3,66.3,128.3,66.3,128.3z M17.9,127.8L17.9,127.8L17.9,127.8z
		 M18.4,124.4C18.4,124.4,18.4,124.4,18.4,124.4C18.4,124.4,18.4,124.4,18.4,124.4z M24.1,122.3C24.1,122.3,24.1,122.3,24.1,122.3
		C24.1,122.3,24.1,122.3,24.1,122.3z"/>
</g>
<g>
	<path class="st1" d="M37.7,92.4c4.4-0.1,8.3-1.4,7.6-5.4c-9.4-3.4-14.9-7.9-21.8-8.5c-5.8-0.5-10.2,2.1-12.9,4.5
		c-0.1,0.5-0.1,0.9-0.1,1.4c0,0.1,0,0.3,0,0.4c0,0.7,0,1.5,0,2.2C10.6,92.9,28.7,92.7,37.7,92.4z"/>
	<path class="st2" d="M78.6,102.1c0.1-0.1,0.1-0.2,0.2-0.3c0.1-0.2,0.2-0.5,0.3-0.7c0,0,0,0,0,0c0.4-0.8,0.7-1.5,1-2.3l0,0
		c0.7-1.8,1.2-3.8,1.6-5.9c0,0,0,0,0-0.1c0-0.1,0-0.2,0-0.3c0-0.2,0.1-0.5,0.1-0.7c0.5-3.5,0.3-7.7-0.3-12.3c-2.2-1.1-4.9-1.8-8-1.7
		c-8.4,0.4-14.8,6.5-28.4,9.3c-3.4,0.7-7.2,1.2-11.6,1.3c-10.2,0.3-17.4-1.5-23.2-3.4c-0.1,3,0.1,5.9,0.8,8.7c0.2,1,0.5,1.9,0.8,2.9
		c2.2,6.1,6.1,10.7,9.6,14.7c1.2,1.4,2.4,2.8,3.4,4.1c1.3,1.7,2.3,3.4,3,5.2c0.1,0.1,0.1,0.2,0.1,0.3c0,0.2,0.1,0.4,0.2,0.6
		c0.5,1.5,0.7,2.9,0.7,4.2c0,0,0,0,0,0c0,0,0,0.1,0,0.1c4.5,1.2,8.9,1.9,13.1,2.3c4.1,0.5,8.6,0.6,13.2,0.4c0,0,0-0.1,0-0.1
		c0,0,0,0,0.1,0c0.2-1.1,0.6-2.2,1.2-3.4c0.1-0.3,0.2-0.5,0.4-0.8c0.2-0.3,0.4-0.6,0.5-0.8c0,0,0-0.1,0-0.1c0.4-0.6,0.9-1.3,1.5-1.9
		c0.6-0.7,1.2-1.4,2-2c0.1-0.1,0.2-0.2,0.3-0.3c0,0,0.1-0.1,0.1-0.1c0.6-0.6,1.3-1.1,2.1-1.7c0.7-0.6,1.4-1.1,2.2-1.7
		c4.2-3.2,8.9-6.8,12.2-12.3c0-0.1,0.1-0.2,0.1-0.2C78.2,102.8,78.4,102.4,78.6,102.1z"/>
</g>
</svg>
