<?xml version="1.0" encoding="utf-8"?>
<!-- Generator: Adobe Illustrator 20.0.0, SVG Export Plug-In . SVG Version: 6.00 Build 0)  -->
<svg version="1.1" id="Layer_1" xmlns="http://www.w3.org/2000/svg" xmlns:xlink="http://www.w3.org/1999/xlink" x="0px" y="0px"
	 viewBox="0 0 596.2 88.8" style="enable-background:new 0 0 596.2 88.8;" xml:space="preserve">
<style type="text/css">
	.st0{fill:#FFFFFF;}
</style>
<g>
	<path class="st0" d="M37.4,2c-3.7,0-6.7,0.1-9.7,0.2c-3,0.1-6.1,0.2-10.1,0.2C10.1,2.4,1,2,0.9,2H0v5.1l4.7,0.7
		c4.3,0.6,6.2,1.7,6.2,6.9v55.8c0,6.4-2.3,9.9-7,10.8L0,81.9V87h0.9c0.1,0,8-0.4,16.2-0.4c5,0,7.8,0.1,10.6,0.2
		c2.3,0.1,4.5,0.2,7.6,0.2c29.3,0,48.3-17.4,48.3-44.4C83.6,17.2,66.3,2,37.4,2z M32.3,81.2c-2.5,0-8.3-0.7-8.3-6.9V8.4
		c1.6-0.3,5.1-0.7,8.2-0.7c22,0,37.3,15.8,37.3,38.4C69.4,63.5,65,81.2,32.3,81.2z"/>
	<path class="st0" d="M466.6,73.4l-5.1-58.7c-0.4-5,4.5-6.5,6-6.8l3.9-0.9V2h-0.9c-0.1,0-8.6,0.4-20.1,0.4h-0.9v0.9
		c0,0-0.1,3.8-3.2,10.7l-24.4,53.2L396,10.9c-1.6-3.4-1.8-5.2-2.1-7.8l-0.1-0.8H393C383,2.4,372,2,371.9,2H371v5.1l4.3,0.7
		c4.1,0.7,6.2,3.6,5.9,7.9L377.6,65c-0.7,9.8-3.9,15.2-9.5,16.2c0,0-2.4,0.7-3.7,0.7s-4.8-0.7-4.8-0.7c-5.8-0.8-7.6-2.6-8.1-7.8
		l-5.1-58.7c-0.4-5,4.5-6.5,6-6.8l3.9-0.9V2h-0.9c-0.1,0-8.6,0.4-20.1,0.4h-0.9v0.9c0,0-0.1,3.8-3.2,10.7l-24.4,53.2L281,11
		c-1.6-3.4-1.8-5.2-2.1-7.8l-0.1-0.8H278c-10.1,0-21-0.4-21.1-0.4L256,2v5.1l4.3,0.7c4.1,0.7,6.2,3.6,5.9,7.9L262.5,65
		c-0.7,9.8-3.9,15.2-9.5,16.2c0,0-1.9,0.6-3.4,0.7s-4.5-0.7-4.5-0.7c-3.5-0.5-6.1-2.8-7.6-6.8L209.4,0l-5.8,0.9l-25.5,70
		c-2.2,6.1-4.2,9.4-8.9,10.3c0,0-2.9,0.7-3.8,0.7c-0.9,0-5.4,0.2-9.6-3.1l0,0c-0.1-0.1-0.2-0.1-0.2-0.2c-2.7-2.4-5.1-5.5-7.4-9.4
		l-9-14.9c-2.3-3.7-4-5.9-5.9-7.5c4.8-1.5,17.3-6.8,17.3-21.3C150.5,11.7,138.8,2,122,2c-2.7,0-5.1,0.1-7.5,0.2
		c-2.4,0.1-4.8,0.2-7.5,0.2C100.2,2.4,90.4,2,90.3,2h-0.9v5.1l4.7,0.7c4.3,0.6,6.2,1.7,6.2,6.9v55.8c0,6.4-2.3,9.9-7,10.8L89.5,82v5
		h0.9c0.1,0,9-0.4,16.3-0.4c6.8,0,17,0.4,17.1,0.4h0.9v-5.1l-5-0.7c-4.3-0.6-6.2-1.8-6.2-6.9V49.5c0.7-0.2,1.9-0.6,3.5-0.6
		c4.1,0,7.1,2.3,9.8,7.6l9.4,17.7c5.4,10.1,13,14.6,24.5,14.6c5.4,0,9.1-1.2,9.3-1.2c0,0,2.3-0.9,2.9-1s2.1-0.1,5-0.1
		c9,0,16.6,0.4,16.7,0.4h0.9v-5.1l-5.3-0.7c-5.4-0.8-5.8-2-5.8-3.9c0-1,0.2-2.2,0.7-3.5l6-18h25.6l5.5,15.1c0.4,1.1,1.5,3.9,1.5,5.8
		c0,2.3-0.9,3.7-5.4,4.5l-3.8,0.7V87l0.9-0.1c0.1,0,6.3-0.5,17.3-0.5c9,0,16,0.5,16.1,0.5h1.2c0.1,0,7.3-0.4,13.9-0.4
		c9.4,0,16.4,0.4,16.5,0.4h0.9v-5.1l-5-0.7c-7.9-1-7.5-6-7-12.2l3.2-44.2L302,88.1l4.7-0.6l27.9-63.3l3,42.6
		c0.6,8.2-2.4,13.3-8.2,14.4l-3.8,0.7V87h0.9c0.1,0,10.7-0.4,18.4-0.4c7.4,0,18.5,0.4,18.6,0.4h1.7c0.1,0,7.3-0.4,13.9-0.4
		c9.4,0,16.4,0.4,16.5,0.4h0.9v-5.1l-5-0.7c-7.9-1-7.5-6-7-12.2l3.2-44.2L417,88.1l4.7-0.6l27.9-63.3l3,42.6
		c0.6,8.2-2.4,13.3-8.2,14.4l-3.8,0.7V87h0.9c0.1,0,10.7-0.4,18.4-0.4c7.4,0,18.5,0.4,18.6,0.4h0.9v-5.1l-4.8-0.7
		C468.8,80.3,467,78.6,466.6,73.4z M127,43.4c-1.7-0.7-4-1-6.3-1c-2.7,0-5.2,0.6-7.3,1.7V8.4c1.8-0.4,3.5-0.6,5.3-0.6
		c11.2,0,17.7,6.6,17.7,18C136.4,35.4,131,42.1,127,43.4z M193.3,49.2l10.6-30l10.4,30H193.3z"/>
	<path class="st0" d="M500.5,2.4c-9.1,0-16.6-0.4-16.7-0.4h-0.9v5.1l4.7,0.7c4.3,0.6,6.2,1.7,6.2,6.9v55.8c0,6.4-2.3,9.9-7,10.8
		L483,82v5h0.9c0.1,0,8-0.4,16.2-0.4c9.1,0,16.6,0.4,16.7,0.4h0.9v-5.1l-4.7-0.7c-4.3-0.6-6.2-1.8-6.2-6.9V18.6
		c0-7.4,4.2-9.9,7.8-10.8l3-0.8V2h-0.9C516.7,2,508.7,2.4,500.5,2.4z"/>
	<path class="st0" d="M592.3,0.1L592,0.5c0,0.1-1,1.5-4,1.5h-54.8c-3.1,0-4-1.4-4-1.4L529,0.1h-4.2l-1.4,19.4l4.5,0.9l0.2-0.8
		c2.4-7.8,7.7-11,18.2-11h7v61.8c0,6.2-2.5,9.8-7.7,10.8l-3.7,0.7V87h0.9c0.1,0,8.6-0.4,16.8-0.4c9.1,0,17.2,0.4,17.3,0.4h0.9v-5.1
		l-4.5-0.7c-4.5-0.7-6.9-2-6.9-6.9V8.6h12.2c7.7,0,11.6,3.4,11.6,10.2v0.7l4.6,0.9l1.4-20.3L592.3,0.1z"/>
</g>
</svg>
